{"title":"Mission.Impossible.Ghost.Protocol.2011.PL.BRRip.XviD-RLF","uid":7219119,"size":1460843240,"categoryP":"video","categoryS":"movies","magnet":"?xt=urn:btih:5d11cf9f4948801cd9b4eb448311a8ed75fb9b18&amp;dn=Mission.Impossible.Ghost.Protocol.2011.PL.BRRip.XviD-RLF&amp;tr=udp%3A%2F%2Ftracker.openbittorrent.com%3A80&amp;tr=udp%3A%2F%2Fopen.demonii.com%3A1337&amp;tr=udp%3A%2F%2Ftracker.coppersurfer.tk%3A6969&amp;tr=udp%3A%2F%2Fexodus.desync.com%3A6969","seeders":1,"leechers":0,"uploader":"rlf-rls","files":-1,"time":1335472160,"description":"Mission.Impossible.Ghost.Protocol.2011.PL.BRRip.XviD-RLF\n~~~~~~~~~~~~~~~~~~~~~~~~~~~~~~~~~~~~~~~~~~~~~~~~~~~~~~~~\n\nGENERAL:\n\n\nComplete name                    : rlf-protocol-pl.avi\nFormat                           : AVI\nFormat/Info                      : Audio Video Interleave\nFile size                        : 1.35 GiB\nDuration                         : 2h 12mn\nOverall bit rate                 : 1 453 Kbps\nLanguage                         : Polish\nSubs                             : English, English forced \nEncoder                          : Ralf\n\nVideo:\n\n                     \nFormat                           : MPEG-4 Visual\nFormat profile                   : Advanced Simple@L5\nFormat settings, BVOP            : 2\nFormat settings, QPel            : No\nFormat settings, GMC             : No warppoints\nFormat settings, Matrix          : H.263\nMuxing mode                      : Packed bitstream\nCodec ID                         : XVID\nDuration                         : 2h 12mn\nBit rate                         : 1 059 Kbps\nWidth                            : 688 pixels\nHeight                           : 288 pixels\nDisplay aspect ratio             : 2.35:1\nColor space                      : YUV\nChroma subsampling               : 4:2:0\nBit depth                        : 8 bits\nScan type                        : Progressive\nBits/(Pixel Frame)               : 0.223\nStream size                      : 1007 MiB (84%)      \nStream size                      : Xvid 64\n\nAudio:\n\nFormat                           : AC-3\nFormat/Info                      : Audio Coding 3\nDuration                         : 2h 12mn\nBit rate mode                    : Constant\nBit rate                         : 384 Kbps\nChannel(s)                       : 6 channels\nChannel positions                : Front: L C R, Side: L R, LFE\nSampling rate                    : 48.0 KHz\nBit depth                        : 16 bits\nDelay relative to video          : 13ms\nStream size                      : 365 MiB (26%)\nAlignment                        : Split accross interleaves\nInterleave, duration             : 42 ms (1.00 video frame)\nInterleave, preload duration     : 500 ms\n                   \n\nMOVIE INFO:\n\n\nOskarzony o terrorystyczny zamach bombowy na Kreml, agent IMF Ethan Hunt \nwraz z reszta zespolu zostaje zwolniony z obowiazkow w chwili, kiedy \nprezydent wdraza Ghost Protocol. Pozostawiony bez srodkow i wsparcia, \nEthan musi znalezc sposob na oczyszczenie dobrego imienia agencji oraz \nuniemozliwienie kolejnego ataku. \n                                          \n &lt;a href=&quot;\nhttp://www.imdb.com/title/tt1229238/&quot; rel=&quot;nofollow&quot; target=&quot;_NEW&quot;&gt;\nhttp://www.imdb.com/title/tt1229238/&lt;/a&gt; &lt;a href=&quot;\nhttp://www.filmweb.pl/film/Mission%3A+Impossible+-+Ghost+Protocol-2011-483087&quot; rel=&quot;nofollow&quot; target=&quot;_NEW&quot;&gt;\nhttp://www.filmweb.pl/film/Mission%3A+Impossible+-+Ghost+Protocol-2011-483087&lt;/a&gt;\n\n                                               \nSOURCE:\n\n\nSPARKS 720p.BluRay.x264 / TTG's Dolby Digital (THX)\n\n\nSCREENS:\n &lt;a href=&quot;\nhttp://image.bayimg.com/iaodfaade.jpg&quot; rel=&quot;nofollow&quot; target=&quot;_NEW&quot;&gt;\nhttp://image.bayimg.com/iaodfaade.jpg&lt;/a&gt; &lt;a href=&quot;\nhttp://image.bayimg.com/iaodhaade.jpg&quot; rel=&quot;nofollow&quot; target=&quot;_NEW&quot;&gt;\nhttp://image.bayimg.com/iaodhaade.jpg&lt;/a&gt; &lt;a href=&quot;\nhttp://image.bayimg.com/iaodiaade.jpg&quot; rel=&quot;nofollow&quot; target=&quot;_NEW&quot;&gt;\nhttp://image.bayimg.com/iaodiaade.jpg&lt;/a&gt; &lt;a href=&quot;\nhttp://image.bayimg.com/iaodkaade.jpg&quot; rel=&quot;nofollow&quot; target=&quot;_NEW&quot;&gt;\nhttp://image.bayimg.com/iaodkaade.jpg&lt;/a&gt;\n\n","torrent":{"xt":"urn:btih:5d11cf9f4948801cd9b4eb448311a8ed75fb9b18","amp;dn":"Mission.Impossible.Ghost.Protocol.2011.PL.BRRip.XviD-RLF","amp;tr":["udp%3A%2F%2Ftracker.openbittorrent.com%3A80","udp%3A%2F%2Fopen.demonii.com%3A1337","udp%3A%2F%2Ftracker.coppersurfer.tk%3A6969","udp%3A%2F%2Fexodus.desync.com%3A6969"],"infoHash":"5d11cf9f4948801cd9b4eb448311a8ed75fb9b18","infoHashBuffer":{"type":"Buffer","data":[93,17,207,159,73,72,128,28,217,180,235,68,131,17,168,237,117,251,155,24]},"announce":[],"urlList":[]}}